<svg width="1365" height="321" viewBox="0 0 1365 321" fill="none" xmlns="http://www.w3.org/2000/svg">
<path d="M65.1094 161.217L129.5 45L62 45L0 161.217L51.3446 260.963H118.129L65.1094 161.217Z" fill="white"/>
<path fill-rule="evenodd" clip-rule="evenodd" d="M194.959 279.234L129 158.557L194.959 40.7669L170.291 0L81.5042 158.557L170.291 321L194.959 279.234Z" fill="white"/>
<path d="M307 158.557L235.787 0L147 158.557L235.787 321L307 158.557Z" fill="white"/>
<path d="M1345.68 182.095H1212.71V139.663H1345.68V182.095ZM1364.63 277H1212.71C1206.88 277 1200.51 275.974 1193.6 273.923C1186.69 271.871 1180.27 268.524 1174.33 263.882C1168.5 259.131 1163.59 253.031 1159.59 245.581C1155.71 238.023 1153.76 228.792 1153.76 217.887V65.9736C1153.76 63.0584 1154.3 60.3052 1155.38 57.7139C1156.46 55.1227 1157.92 52.8553 1159.76 50.9119C1161.7 48.9684 1163.97 47.4568 1166.56 46.3771C1169.15 45.2974 1171.96 44.7576 1174.98 44.7576H1364.63V86.8657H1195.87V217.887C1195.87 223.393 1197.33 227.604 1200.24 230.519C1203.16 233.434 1207.42 234.892 1213.04 234.892H1364.63V277Z" fill="white"/>
<path d="M1114.89 277H962.981C959.095 277 954.884 276.568 950.349 275.704C945.922 274.733 941.496 273.275 937.069 271.332C932.75 269.388 928.593 266.905 924.598 263.882C920.603 260.751 917.04 257.026 913.909 252.707C910.886 248.28 908.457 243.206 906.621 237.483C904.786 231.653 903.868 225.121 903.868 217.887V103.871C903.868 99.984 904.3 95.8272 905.164 91.4004C906.135 86.8657 907.593 82.439 909.537 78.1202C911.48 73.6934 914.017 69.4826 917.148 65.4877C920.279 61.4929 924.004 57.9839 928.323 54.9607C932.75 51.8296 937.825 49.3463 943.547 47.5108C949.269 45.6753 955.747 44.7576 962.981 44.7576H1114.89V86.8657H962.981C957.475 86.8657 953.264 88.3233 950.349 91.2385C947.434 94.1536 945.976 98.4724 945.976 104.195V217.887C945.976 223.285 947.434 227.496 950.349 230.519C953.372 233.434 957.583 234.892 962.981 234.892H1114.89V277Z" fill="white"/>
<path d="M857.873 277H815.765V219.992H667.739V277H625.631V160.879C625.631 143.928 628.546 128.326 634.376 114.074C640.207 99.822 648.304 87.5675 658.669 77.3104C669.034 67.0533 681.289 59.0636 695.433 53.3412C709.577 47.6188 725.017 44.7576 741.752 44.7576H836.657C839.572 44.7576 842.326 45.2974 844.917 46.3771C847.508 47.4568 849.775 48.9684 851.719 50.9119C853.662 52.8553 855.174 55.1227 856.254 57.7139C857.333 60.3052 857.873 63.0584 857.873 65.9736V277ZM667.739 177.884H815.765V86.8657H741.752C740.456 86.8657 737.703 87.0816 733.492 87.5135C729.389 87.8374 724.585 88.7552 719.078 90.2667C713.68 91.7783 707.957 94.0997 701.911 97.2308C695.865 100.362 690.304 104.681 685.23 110.187C680.155 115.694 675.945 122.604 672.597 130.917C669.358 139.123 667.739 149.11 667.739 160.879V177.884Z" fill="white"/>
<path d="M593.888 141.93C593.888 151.539 592.7 160.123 590.325 167.681C587.949 175.239 584.71 181.933 580.607 187.763C576.613 193.486 571.97 198.398 566.679 202.501C561.389 206.604 555.828 209.951 549.998 212.542C544.276 215.133 538.445 217.023 532.507 218.211C526.677 219.398 521.17 219.992 515.988 219.992H420.759V177.884H515.988C521.386 177.452 526.245 176.372 530.564 174.645C534.99 172.809 538.769 170.38 541.9 167.357C545.031 164.334 547.461 160.717 549.188 156.506C550.916 152.187 551.78 147.329 551.78 141.93V122.82C551.24 117.529 550.106 112.67 548.379 108.244C546.651 103.817 544.276 100.038 541.253 96.9069C538.337 93.7758 534.774 91.3464 530.564 89.6189C526.353 87.7834 521.494 86.8657 515.988 86.8657H421.083C415.468 86.8657 411.203 88.3233 408.288 91.2385C405.373 94.1536 403.915 98.3645 403.915 103.871V277H361.807V103.871C361.807 93.0739 363.751 83.8965 367.638 76.3387C371.632 68.7808 376.545 62.6805 382.375 58.0378C388.314 53.3952 394.738 50.0481 401.648 47.9967C408.558 45.8373 414.928 44.7576 420.759 44.7576H515.988C525.489 44.7576 534.019 45.9992 541.576 48.4825C549.134 50.8579 555.774 54.097 561.497 58.1998C567.327 62.1947 572.24 66.8374 576.235 72.1279C580.338 77.4184 583.685 82.9788 586.276 88.8092C588.975 94.5315 590.919 100.362 592.106 106.3C593.294 112.131 593.888 117.637 593.888 122.82V141.93Z" fill="white"/>
</svg>
