<svg width="931" height="285" viewBox="0 0 931 285" fill="none" xmlns="http://www.w3.org/2000/svg">
<path d="M43.8274 142.921L87.171 64.6909L41.7344 64.6909L0 142.921L34.5619 210.063L79.517 210.063L43.8274 142.921Z" fill="#34A853"/>
<path fill-rule="evenodd" clip-rule="evenodd" d="M131.234 61.8414L86.8345 141.13L131.234 222.362L114.629 250.476L54.8635 141.13L114.629 34.3999L131.234 61.8414Z" fill="#34A853"/>
<path d="M206.653 141.13L158.717 34.3999L98.9509 141.13L158.717 250.476L206.653 141.13Z" fill="#34A853"/>
<path d="M399.767 130.08C399.767 136.548 398.967 142.326 397.369 147.413C395.77 152.501 393.589 157.007 390.827 160.932C388.138 164.783 385.013 168.09 381.452 170.852C377.891 173.614 374.148 175.867 370.223 177.611C366.371 179.355 362.447 180.627 358.449 181.427C354.525 182.226 350.818 182.626 347.33 182.626H283.228V154.282H347.33C350.964 153.991 354.234 153.264 357.141 152.101C360.121 150.866 362.665 149.23 364.772 147.195C366.88 145.16 368.515 142.726 369.678 139.891C370.841 136.984 371.422 133.714 371.422 130.08V117.216C371.059 113.654 370.296 110.384 369.133 107.404C367.97 104.424 366.371 101.881 364.336 99.7729C362.374 97.6653 359.976 96.03 357.141 94.8672C354.307 93.6316 351.036 93.0139 347.33 93.0139H283.446C279.666 93.0139 276.796 93.995 274.833 95.9573C272.871 97.9196 271.89 100.754 271.89 104.461V221H243.545V104.461C243.545 97.1928 244.854 91.0152 247.47 85.9277C250.159 80.8403 253.466 76.734 257.39 73.6088C261.388 70.4836 265.712 68.2306 270.364 66.8497C275.015 65.3962 279.303 64.6694 283.228 64.6694H347.33C353.725 64.6694 359.467 65.5052 364.554 67.1768C369.642 68.7757 374.112 70.9561 377.963 73.7178C381.888 76.4069 385.195 79.5321 387.884 83.0933C390.646 86.6545 392.899 90.3974 394.643 94.3221C396.46 98.174 397.768 102.099 398.568 106.096C399.367 110.021 399.767 113.727 399.767 117.216V130.08ZM577.465 221H549.12V182.626H449.479V221H421.134V142.835C421.134 131.424 423.097 120.922 427.021 111.329C430.946 101.735 436.397 93.4863 443.374 86.5818C450.351 79.6774 458.6 74.2992 468.121 70.4473C477.641 66.5954 488.034 64.6694 499.3 64.6694H563.184C565.146 64.6694 566.999 65.0328 568.743 65.7596C570.488 66.4864 572.014 67.5038 573.322 68.8121C574.63 70.1203 575.648 71.6465 576.375 73.3908C577.101 75.135 577.465 76.9883 577.465 78.9506V221ZM449.479 154.282H549.12V93.0139H499.3C498.427 93.0139 496.574 93.1592 493.74 93.4499C490.978 93.668 487.744 94.2857 484.037 95.3032C480.403 96.3207 476.551 97.8833 472.481 99.991C468.411 102.099 464.668 105.006 461.253 108.712C457.837 112.419 455.002 117.07 452.749 122.667C450.569 128.19 449.479 134.913 449.479 142.835V154.282ZM750.475 221H648.217C645.601 221 642.766 220.709 639.714 220.128C636.734 219.474 633.754 218.493 630.774 217.184C627.867 215.876 625.069 214.205 622.38 212.17C619.691 210.062 617.292 207.555 615.185 204.647C613.15 201.668 611.515 198.252 610.279 194.4C609.043 190.475 608.426 186.078 608.426 181.209V104.461C608.426 101.844 608.716 99.0461 609.298 96.0663C609.952 93.0139 610.933 90.0341 612.241 87.1269C613.55 84.1471 615.257 81.3127 617.365 78.6236C619.473 75.9345 621.98 73.5725 624.887 71.5375C627.867 69.4298 631.283 67.7582 635.135 66.5227C638.987 65.2872 643.348 64.6694 648.217 64.6694H750.475V93.0139H648.217C644.51 93.0139 641.676 93.995 639.714 95.9573C637.751 97.9196 636.77 100.827 636.77 104.679V181.209C636.77 184.843 637.751 187.677 639.714 189.712C641.749 191.674 644.583 192.656 648.217 192.656H750.475V221ZM905.825 157.116H816.321V128.553H905.825V157.116ZM918.58 221H816.321C812.397 221 808.109 220.31 803.457 218.929C798.806 217.548 794.482 215.295 790.484 212.17C786.56 208.972 783.253 204.865 780.564 199.851C777.947 194.763 776.639 188.549 776.639 181.209V78.9506C776.639 76.9883 777.003 75.135 777.729 73.3908C778.456 71.6465 779.437 70.1203 780.673 68.8121C781.981 67.5038 783.507 66.4864 785.252 65.7596C786.996 65.0328 788.885 64.6694 790.92 64.6694H918.58V93.0139H804.984V181.209C804.984 184.915 805.965 187.75 807.927 189.712C809.889 191.674 812.76 192.656 816.539 192.656H918.58V221Z" fill="#34A853"/>
</svg>
